<?xml version="1.0" encoding="utf-8"?>
<!-- Generator: Adobe Illustrator 23.0.3, SVG Export Plug-In . SVG Version: 6.00 Build 0)  -->
<svg version="1.1" id="Layer_1" xmlns="http://www.w3.org/2000/svg" xmlns:xlink="http://www.w3.org/1999/xlink" x="0px" y="0px"
	 viewBox="0 0 1920 1080" style="enable-background:new 0 0 1920 1080;" xml:space="preserve">
<style type="text/css">
	.st0{fill:#F0F0F2;}
</style>
<g>
	<path class="st0" d="M34.65,755.12V369.56h83.84v153h146.27v-153h83.84v385.56h-83.84V588.65H118.5v166.46H34.65z"/>
	<path class="st0" d="M667.46,630.27h-194v2.45c0,23.26,8.16,40.6,24.48,52.02c16.31,11.43,37.33,17.13,63.04,17.13
		c16.31,0,30.7-1.62,43.15-4.9c12.44-3.26,23.76-7.13,33.97-11.63l14.69,56.92c-11.02,5.31-24.89,9.9-41.62,13.77
		c-16.73,3.87-36.52,5.81-59.36,5.81c-22.03,0-42.74-2.96-62.12-8.87c-19.38-5.91-36.32-14.99-50.8-27.23
		c-14.49-12.24-26.01-27.74-34.58-46.51c-8.57-18.76-12.85-41.2-12.85-67.32c0-23.26,3.46-44.37,10.4-63.34
		c6.93-18.97,16.83-35.19,29.68-48.65s28.25-23.96,46.21-31.52c17.95-7.54,37.94-11.32,59.98-11.32c39.57,0,71.09,12.04,94.55,36.11
		c23.46,24.08,35.19,57.74,35.19,100.98V630.27z M584.22,574.58c0-7.75-0.92-15.3-2.75-22.64c-1.84-7.34-4.8-13.77-8.87-19.28
		c-4.08-5.51-9.18-9.89-15.3-13.16c-6.12-3.26-13.67-4.9-22.64-4.9c-16.32,0-29.79,5.51-40.39,16.52
		c-10.61,11.02-16.94,25.91-18.97,44.68L584.22,574.58z"/>
	<path class="st0" d="M706.62,755.12V318.15h80.17v436.97H706.62z"/>
	<path class="st0" d="M844.31,755.12V318.15h80.17v436.97H844.31z"/>
	<path class="st0" d="M1263.53,607.01c0,24.08-3.88,45.7-11.63,64.87c-7.75,19.18-18.46,35.4-32.13,48.65
		c-13.67,13.26-29.68,23.47-48.04,30.6c-18.36,7.13-38.15,10.71-59.36,10.71c-21.22,0-40.91-3.27-59.06-9.79
		c-18.16-6.52-33.87-16.11-47.12-28.76c-13.26-12.64-23.67-28.25-31.21-46.82c-7.55-18.56-11.32-39.67-11.32-63.34
		c0-24.88,3.87-47.02,11.63-66.4c7.75-19.37,18.46-35.7,32.13-48.96c13.66-13.25,29.68-23.35,48.04-30.29
		c18.36-6.93,38.14-10.4,59.36-10.4c21.21,0,40.9,3.27,59.06,9.79c18.15,6.53,33.86,16.02,47.12,28.46
		c13.25,12.45,23.66,28.06,31.21,46.82C1259.75,560.91,1263.53,582.53,1263.53,607.01z M1179.68,610.07c0-16.73-1.84-31-5.51-42.84
		c-3.67-11.83-8.57-21.42-14.69-28.76c-6.12-7.34-13.26-12.75-21.42-16.22c-8.17-3.46-16.52-5.2-25.09-5.2
		c-8.57,0-16.73,1.53-24.48,4.59c-7.76,3.06-14.69,8.17-20.81,15.3c-6.12,7.14-11.02,16.63-14.69,28.46
		c-3.67,11.84-5.51,26.73-5.51,44.68c0,15.91,1.84,29.68,5.51,41.31s8.66,21.11,14.99,28.46c6.32,7.34,13.46,12.85,21.42,16.52
		s16.22,5.51,24.79,5.51c8.57,0,16.72-1.53,24.48-4.59c7.75-3.06,14.69-8.26,20.81-15.61c6.12-7.34,11.02-16.83,14.69-28.46
		S1179.68,627.21,1179.68,610.07z"/>
	<path class="st0" d="M1292.9,711.67c0-6.93,1.32-13.46,3.98-19.58c2.65-6.12,6.22-11.42,10.71-15.91
		c4.48-4.48,9.69-7.96,15.61-10.4c5.91-2.45,12.13-3.67,18.67-3.67c13.05,0,24.38,4.7,33.97,14.08c9.58,9.39,14.38,21.22,14.38,35.5
		c0,15.51-4.8,27.75-14.38,36.72c-9.59,8.97-20.91,13.46-33.97,13.46c-13.06,0-24.48-4.49-34.27-13.46S1292.9,727.18,1292.9,711.67z
		"/>
	<path class="st0" d="M1414.68,711.67c0-6.93,1.32-13.46,3.98-19.58c2.65-6.12,6.22-11.42,10.71-15.91
		c4.48-4.48,9.69-7.96,15.61-10.4c5.91-2.45,12.13-3.67,18.67-3.67c13.05,0,24.38,4.7,33.97,14.08c9.58,9.39,14.38,21.22,14.38,35.5
		c0,15.51-4.8,27.75-14.38,36.72c-9.59,8.97-20.91,13.46-33.97,13.46c-13.06,0-24.48-4.49-34.27-13.46
		S1414.68,727.18,1414.68,711.67z"/>
	<path class="st0" d="M1536.46,711.67c0-6.93,1.32-13.46,3.98-19.58c2.65-6.12,6.22-11.42,10.71-15.91
		c4.48-4.48,9.69-7.96,15.61-10.4c5.91-2.45,12.13-3.67,18.67-3.67c13.05,0,24.38,4.7,33.97,14.08c9.58,9.39,14.38,21.22,14.38,35.5
		c0,15.51-4.8,27.75-14.38,36.72c-9.59,8.97-20.91,13.46-33.97,13.46c-13.06,0-24.48-4.49-34.27-13.46
		S1536.46,727.18,1536.46,711.67z"/>
</g>
</svg>
