<?xml version="1.0" encoding="UTF-8"?>
<svg width="230px" height="48px" viewBox="0 0 230 48" version="1.1" xmlns="http://www.w3.org/2000/svg" xmlns:xlink="http://www.w3.org/1999/xlink">
    <title>Group 9</title>
    <defs>
        <rect id="path-1" x="0" y="0" width="48" height="48"></rect>
        <rect id="path-3" x="0" y="0" width="48" height="48"></rect>
        <rect id="path-5" x="0" y="0" width="48" height="48"></rect>
        <rect id="path-7" x="0" y="0" width="48" height="48"></rect>
    </defs>
    <g id="Page-1" stroke="none" stroke-width="1" fill="none" fill-rule="evenodd">
        <g id="Group-9" transform="translate(-6.000000, 0.000000)">
            <g id="chart-/-line_chart_up">
                <mask id="mask-2" fill="white">
                    <use xlink:href="#path-1"></use>
                </mask>
                <g id="chart-/-line_chart_up-(Background/Mask)"></g>
                <path d="M6,40 C6,41.1059999 6.89400005,42 8,42 L42,42 L42,38 L10,38 L10,6 L6,6 L6,40 Z M32.2872219,28.1968136 L42,18.6888514 L39.2532234,16 L30.9138336,24.1635361 L26.4595528,19.8031845 C25.7000135,19.0596619 24.4723174,19.0596619 23.7127781,19.8031845 L14,29.3111477 L16.7467728,32 L25.0861664,23.836462 L29.5404472,28.1968136 C30.2999865,28.9403362 31.5276826,28.9403362 32.2872219,28.1968136 Z" fill="#2E3A59" mask="url(#mask-2)"></path>
            </g>
            <g id="icon/check" transform="translate(48.000000, 0.000000)">
                <mask id="mask-4" fill="white">
                    <use xlink:href="#path-3"></use>
                </mask>
                <g id="basic-/-circle_check-(Background/Mask)"></g>
                <path d="M4,24 C4,12.96 12.96,4 24,4 C35.0400009,4 44,12.96 44,24 C44,35.0400009 35.0400009,44 24,44 C12.96,44 4,35.0400009 4,24 C4,16.64 4,16.64 4,24 Z M20,28.3400345 L33.1800003,15.1600342 L36,18.0000343 L20,34.0000343 L12,26.0000343 L14.8199997,23.1800346 L20,28.3400345 L20,28.3400345 Z" id="basic-/-circle_check" fill="#000000" mask="url(#mask-4)"></path>
            </g>
            <g id="icon/tick" transform="translate(96.000000, 0.000000)">
                <rect id="Rectangle" fill="#FFFFFF" opacity="0" x="0" y="0" width="48" height="48"></rect>
                <path d="M20,28.3400345 L33.1800003,15.1600342 L36,18.0000343 L20,34.0000343 L12,26.0000343 L14.8199997,23.1800346 L20,28.3400345 L20,28.3400345 Z" id="basic-/-circle_check" fill="#000000"></path>
            </g>
            <g id="basic-/-link_02" transform="translate(144.000000, 0.000000)">
                <mask id="mask-6" fill="white">
                    <use xlink:href="#path-5"></use>
                </mask>
                <g id="basic-/-link_02-(Background/Mask)"></g>
                <path d="M28.242709,33.8994722 L24.0000683,38.1421129 C20.0948253,42.0473559 13.763176,42.0473562 9.85793268,38.1421129 C5.95268966,34.2368698 5.95268966,27.9052203 9.85793268,23.9999772 L14.1005734,19.7573365 L16.9290005,22.5857637 L12.6863598,26.8284044 C10.3432142,29.17155 10.3432142,32.9705401 12.6863598,35.3136857 C15.0295054,37.6568313 18.8284956,37.6568313 21.1716412,35.3136857 L25.4142819,31.071045 L28.242709,33.8994722 Z M19.7574276,14.1004823 L24.0000683,9.85784161 C27.9053103,5.95259959 34.2369609,5.95259858 38.1422039,9.85784161 C42.0474473,13.763085 42.0474459,20.0947352 38.1422039,23.9999772 L33.8995632,28.2426179 L31.0711361,25.4141908 L35.3137768,21.1715501 C37.6569231,18.8284038 37.6569224,15.0294143 35.3137768,12.6862687 C32.9706312,10.3431231 29.1716417,10.3431224 26.8284954,12.6862687 L22.5858547,16.9289094 L19.7574276,14.1004823 Z M15.5147869,29.6568315 L18.3432141,32.4852586 L32.4853497,18.343123 L29.6569226,15.5146959 L15.5147869,29.6568315 Z" fill="#000000" mask="url(#mask-6)"></path>
            </g>
            <g id="attention-/-info_circle" transform="translate(192.000000, 0.000000)">
                <mask id="mask-8" fill="white">
                    <use xlink:href="#path-7"></use>
                </mask>
                <g id="attention-/-info_circle-(Background/Mask)"></g>
                <path d="M4,24 C4,35.0384626 12.9615374,44 24,44 C35.0384626,44 44,35.0384626 44,24 C44,12.9615374 35.0384626,4 24,4 C12.9615374,4 4,12.9615374 4,24 Z M21.9807701,34 L21.9807701,25.9903851 L19.9807701,25.9903851 L19.9807701,21.9807701 L26.0192318,21.9807701 L26,30 L28.0192318,30 L28.0192318,34 L21.9807701,34 Z M21.9807701,18.0384617 L21.9807701,14 L26.0192318,14 L26.0192318,18.0384617 L21.9807701,18.0384617 Z" fill="#000000" mask="url(#mask-8)"></path>
            </g>
        </g>
    </g>
</svg>