<?xml version="1.0" encoding="utf-8"?>
<!-- Generator: Adobe Illustrator 27.8.1, SVG Export Plug-In . SVG Version: 6.00 Build 0)  -->
<svg version="1.1" id="Layer_1" xmlns="http://www.w3.org/2000/svg" xmlns:xlink="http://www.w3.org/1999/xlink" x="0px" y="0px"
	 viewBox="0 0 90 90" style="enable-background:new 0 0 90 90;" xml:space="preserve">
<style type="text/css">
	.st0{fill:#FD3C75;}
	.st1{fill:#FFFFFF;}
</style>
<path class="st0" d="M89.2,45c0,24.4-19.8,44.2-44.2,44.2S0.8,69.4,0.8,45S20.6,0.8,45,0.8S89.2,20.6,89.2,45z"/>
<path class="st1" d="M22.1,58.9V30.2h7.8c4.2,0,7.5,1.2,9.9,3.7c2.4,2.4,3.6,6,3.6,10.7c0,4.5-1.2,8-3.5,10.5
	c-2.3,2.5-5.7,3.8-10.1,3.8H22.1z M25.2,56.3h4.2c3.4,0,6-0.9,7.9-2.8c1.9-1.9,2.9-4.9,2.9-8.9c0-4.1-1-7.1-2.9-9
	c-1.9-1.9-4.6-2.8-7.9-2.8h-4.3V56.3z"/>
<path class="st1" d="M46.4,32.9v-2.6h20.8v2.6h-8.8v26.1h-3.1V32.9H46.4z"/>
</svg>
